<svg id="圖層_1" data-name="圖層 1" xmlns="http://www.w3.org/2000/svg" xmlns:xlink="http://www.w3.org/1999/xlink" viewBox="0 0 68.98177 77.4748"><defs><style>.cls-1{fill:#142041;}.cls-2{stroke-miterlimit:10;fill:url(#未命名漸層_4);stroke:url(#未命名漸層_4-2);}.cls-3{fill:#759c2e;}.cls-4{fill:url(#未命名漸層_4-3);}</style><linearGradient id="未命名漸層_4" x1="420.76732" y1="330.59211" x2="420.76732" y2="275.23729" gradientUnits="userSpaceOnUse"><stop offset="0" stop-color="#0a81af"/><stop offset="1" stop-color="#142042"/></linearGradient><linearGradient id="未命名漸層_4-2" x1="420.76732" y1="331.61541" x2="420.76732" y2="274.73729" xlink:href="#未命名漸層_4"/><linearGradient id="未命名漸層_4-3" x1="420.43522" y1="338.08599" x2="420.43522" y2="291.13962" xlink:href="#未命名漸層_4"/></defs><path class="cls-1" d="M407.8489,274.80075a1.49709,1.49709,0,0,0,2.10666,0,1.52732,1.52732,0,0,0,0-2.10666q-2.68183-3.11715-5.36367-6.23429a1.49709,1.49709,0,0,0-2.10666,0,1.52725,1.52725,0,0,0,0,2.10666Q405.16707,271.68363,407.8489,274.80075Z" transform="translate(-386.27644 -260.61119)"/><path class="cls-1" d="M420.35346,274.40969a1.51238,1.51238,0,0,0,1.48963-1.48964q.15253-5.40961.3051-10.81922a1.48964,1.48964,0,0,0-2.97928,0q-.15252,5.40962-.30509,10.81922A1.5087,1.5087,0,0,0,420.35346,274.40969Z" transform="translate(-386.27644 -260.61119)"/><path class="cls-1" d="M432.3206,275.15381a1.51713,1.51713,0,0,0,2.0381-.53439q2.1223-3.61032,4.24456-7.22063a1.48987,1.48987,0,0,0-2.5725-1.50371l-4.24459,7.22063A1.50764,1.50764,0,0,0,432.3206,275.15381Z" transform="translate(-386.27644 -260.61119)"/><path class="cls-2" d="M420.33441,275.23972c-18.74124.22774-33.794,16.39987-33.55517,36.05064a52.82334,52.82334,0,0,0,4.16025,18.98284l.13031.31891a5.24887,5.24887,0,0,0,.81276-4.83448,47.86276,47.86276,0,0,1-2.64935-14.49709c-.222-18.27086,13.74362-33.30732,31.13161-33.51862s31.71462,14.48134,31.93664,32.7522a48.93547,48.93547,0,0,1-2.49721,15.17768,5.5011,5.5011,0,0,0,.829,4.89115l.017.02349.07-.176a53.95564,53.95564,0,0,0,4.03519-19.94612C454.51664,290.81356,439.0754,275.012,420.33441,275.23972Z" transform="translate(-386.27644 -260.61119)"/><path class="cls-3" d="M420.3543,310.55286c.0607,5.08551-4.77322,3.30624-9.60605,3.36393a11.65611,11.65611,0,0,1-11.34852-8.40955c-1.53338-4.87259-1.18421-8.54055,3.64863-8.59823S420.2936,305.46736,420.3543,310.55286Z" transform="translate(-386.27644 -260.61119)"/><path class="cls-4" d="M442.98507,292.627a1.49874,1.49874,0,0,0-2.24146-1.28625c-3.298,2.13293-6.92352,3.69909-10.20923,5.84838a22.99042,22.99042,0,0,0-8.29773,9.28418c-.31671.65809-.60339,1.3346-.91455,1.98969a44.04711,44.04711,0,0,0-7.27661-7.89233,31.00082,31.00082,0,0,0-7.54516-4.28046c-1.68262-.707-3.38227-1.37238-5.06427-2.081a1.496,1.496,0,0,0-1.68219.68458,12.93883,12.93883,0,0,0,.0484,13.49249c2.433,3.9079,7.14141,6.62408,11.6087,7.434,4.15784.75391,8.73022-.29041,11.3197-3.83746,1.44177-1.975,2.12079-4.4,3.444-6.45795a18.77193,18.77193,0,0,1,4.24433-4.61908c2.89032-2.25824,6.26812-3.79517,9.47039-5.58923-.01385,3.22137.30371,6.47619-.34936,9.63317a9.75009,9.75009,0,0,1-.84815,2.5561,7.01433,7.01433,0,0,1-.67138,1.06305c-.11127.13879-.2826.31872-.42731.46417-.0686.069-.339.29547-.377.33948a5.51765,5.51765,0,0,1-.5113.32025c-.137.07373-.27764.13849-.41754.20642-.01471.00714-.03961.01831-.06341.02874-.05225.02131-.1045.043-.15729.06257a21.62116,21.62116,0,0,1-2.18543.67114c-3.35583.85046-6.82495,1.22119-10.14685,2.21179a10.92423,10.92423,0,0,0-4.09338,1.994,5.07831,5.07831,0,0,0-1.24408,1.77337,17.08221,17.08221,0,0,0-1.20483,3.44666,17.5843,17.5843,0,0,0,1.171,10.97992,8.36463,8.36463,0,0,1-2.44245,1.25232c-1.03692.3092-2.33209.31421-3.22351.98492-.964.72534-1.38324,2.05182-1.932,3.07648a8.21323,8.21323,0,0,1-1.18055,1.70489c1.49726-.00262,2.99628-.05987,4.48169-.09283q5.16834-.11481,10.3368-.22949,4.61644-.10245,9.23278-.20709,2.35914-.05631,4.71778-.12561c.33526-.01014.67083-.01856,1.00641-.028-.10309-.01263-.20594-.01916-.30921-.03394a16.02585,16.02585,0,0,1-3.944-1.13488,34.673,34.673,0,0,1-7.234-4.46192,34.27959,34.27959,0,0,0-3.40191-2.42621,3.35238,3.35238,0,0,0-2.995-.43487,4.885,4.885,0,0,0-.68329.34711,14.40062,14.40062,0,0,1-.77521-8.16016,13.69536,13.69536,0,0,1,1.001-3.05688c.095-.2002.19251-.3996.29895-.59406a1.135,1.135,0,0,1,.11-.15869c.05554-.059.111-.11786.16711-.17639.04761-.04969.10327-.09088.1532-.13794l.00427-.00446a7.76117,7.76117,0,0,1,.68451-.42053c.14832-.07935.29975-.15228.452-.22369.0578-.02716.11657-.05256.17517-.07807l.08478-.0329a21.32143,21.32143,0,0,1,2.20538-.69952c3.31647-.87457,6.74982-1.24109,10.05109-2.1759a10.28934,10.28934,0,0,0,3.84832-1.78968,9.75563,9.75563,0,0,0,2.96-4.96783C443.45614,302.0274,442.54708,297.26,442.98507,292.627Zm-23.7464,18.7923c-.04315.02752-.2732.19946-.31134.22461-.13831.09124-.28028.17694-.42383.2597-.31915.184-.64917.34925-.98175.50751a7.27518,7.27518,0,0,1-2.53656.6687,15.12916,15.12916,0,0,1-11.16724-4.41754,9.97112,9.97112,0,0,1-2.08734-11.1311c2.31641.94287,4.46893,1.74133,6.6767,2.89123a23.876,23.876,0,0,1,6.54919,5.06152,62.052,62.052,0,0,1,4.55481,5.48951c.02832.03772.06128.07043.09174.106C419.486,311.1961,419.36788,311.31189,419.23867,311.41931Z" transform="translate(-386.27644 -260.61119)"/></svg>