<svg xmlns="http://www.w3.org/2000/svg" xmlns:xlink="http://www.w3.org/1999/xlink" viewBox="0 0 125.6259 39.88525"><defs><style>.cls-1{fill:#ee7e56;}.cls-2{fill:#142041;}.cls-3{stroke-miterlimit:10;fill:url(#未命名漸層_4);stroke:url(#未命名漸層_4-2);}.cls-4{fill:#759c2e;}.cls-5{fill:url(#未命名漸層_4-3);}</style><linearGradient id="未命名漸層_4" x1="18.74718" y1="37.56755" x2="18.74718" y2="7.85166" gradientUnits="userSpaceOnUse"><stop offset="0" stop-color="#0a81af"/><stop offset="1" stop-color="#142042"/></linearGradient><linearGradient id="未命名漸層_4-2" x1="18.74718" y1="38.59347" x2="18.74718" y2="7.35166" xlink:href="#未命名漸層_4"/><linearGradient id="未命名漸層_4-3" x1="18.18996" y1="39.88525" x2="18.18996" y2="14.68323" xlink:href="#未命名漸層_4"/></defs><g id="圖層_2" data-name="圖層 2"><g id="圖層_3" data-name="圖層 3"><path class="cls-1" d="M39.76448,24.32524h2.72576q2.658,0,2.658,3.90164a5.29634,5.29634,0,0,1-.4709,2.44749,2.13636,2.13636,0,0,1-1.17359,1.12377,7.33969,7.33969,0,0,1-2.07089.25442v6.041h-1.6684Zm1.6684,6.28965a2.02978,2.02978,0,0,0,1.513-.47517,2.86162,2.86162,0,0,0,.45629-1.91284,3.43817,3.43817,0,0,0-.39784-1.9673,1.90328,1.90328,0,0,0-1.57143-.51888Z"/><path class="cls-2" d="M47.43832,28.48633a2.28982,2.28982,0,0,1,1.95,1.02629q.73623,1.02666.73723,3.9769A6.43841,6.43841,0,0,1,49.35379,37.24a2.32843,2.32843,0,0,1-1.89621.98329,2.24618,2.24618,0,0,1-2.0855-1.17823,7.47992,7.47992,0,0,1-.67878-3.62q0-2.994.77575-3.96615a2.37749,2.37749,0,0,1,1.93075-.97254Zm.99891,5.44611a15.8,15.8,0,0,0-.20323-3.19858q-.20424-.78908-.81494-.78907a.79873.79873,0,0,0-.79568.61635,7.10612,7.10612,0,0,0-.2132,2.08556,14.35255,14.35255,0,0,0,.23778,3.50173.82539.82539,0,0,0,.79036.63714.79519.79519,0,0,0,.79568-.64287A8.26647,8.26647,0,0,0,48.43723,33.93244Z"/><path class="cls-2" d="M54.27862,37.80183a3.08067,3.08067,0,0,1-1.43527.42141,1.99659,1.99659,0,0,1-1.90153-1.189,8.72575,8.72575,0,0,1-.60107-3.739,6.69034,6.69034,0,0,1,.76645-3.76118,2.19444,2.19444,0,0,1,1.78463-1.04779,4.07765,4.07765,0,0,1,1.36753.33469V30.3232a2.182,2.182,0,0,0-.89265-.281,1.0608,1.0608,0,0,0-.99891.82706,7.95623,7.95623,0,0,0-.31017,2.59871q0,3.21,1.2513,3.21a2.21059,2.21059,0,0,0,.96969-.33541Z"/><path class="cls-2" d="M60.02237,38.09352H58.348l-2.36113-5.04691h-.03852v5.04691H54.35766V23.86082h1.59069V32.6897h.03852l2.08749-4.0414h1.66641l-2.13731,4.275Z"/><path class="cls-2" d="M64.68951,33.68446H61.12025a10.59153,10.59153,0,0,0,.18929,2.31777.8763.8763,0,0,0,.89729.78334.72883.72883,0,0,0,.73723-.45366,3.99326,3.99326,0,0,0,.20324-1.42621h1.44524q-.06775,3.31755-2.52186,3.31754-2.63809,0-2.63809-4.647,0-5.06877,2.73506-5.06841a2.2605,2.2605,0,0,1,1.78.87507q.74222.87509.74188,3.62071Zm-1.6-1.37246a7.05164,7.05164,0,0,0-.2039-2.016.75692.75692,0,0,0-.73723-.61062.80983.80983,0,0,0-.82955.64359,7.26624,7.26624,0,0,0-.19859,1.98307Z"/><path class="cls-2" d="M68.18305,30.04225H67.16421v8.05127H65.57352V30.04225H64.55534v-1.394h1.01818V26.07611h1.59069V28.6483h1.01884Z"/><path class="cls-1" d="M70.22338,24.32524h2.72576q2.658,0,2.658,3.90164a5.29634,5.29634,0,0,1-.4709,2.44749,2.13636,2.13636,0,0,1-1.17359,1.12377,7.33969,7.33969,0,0,1-2.07089.25442v6.041h-1.6684Zm1.6684,6.28965a2.02978,2.02978,0,0,0,1.513-.47517,2.86168,2.86168,0,0,0,.45629-1.91284,3.43825,3.43825,0,0,0-.39784-1.9673,1.90329,1.90329,0,0,0-1.57143-.51888Z"/><path class="cls-2" d="M77.46086,38.09352H75.87017V23.83861h1.59069Z"/><path class="cls-2" d="M83.11761,38.09352H81.52692V36.94826h-.04849q-.6097,1.275-1.57674,1.275a1.79213,1.79213,0,0,1-1.45122-.8593q-.62962-.859-.629-3.85292a11.10906,11.10906,0,0,1,.47422-3.83069,1.65668,1.65668,0,0,1,1.62523-1.1725,1.3119,1.3119,0,0,1,.87538.28094,3.29384,3.29384,0,0,1,.6821.89657h.04849v-1.037h1.59069ZM80.518,36.67807q.60572,0,.807-.81058a12.95311,12.95311,0,0,0,.20191-2.75638,10.81659,10.81659,0,0,0-.18265-2.40449q-.18232-.69662-.76845-.69662a.82652.82652,0,0,0-.81162.64789,8.17687,8.17687,0,0,0-.22581,2.34572,15.56166,15.56166,0,0,0,.17733,2.83665Q79.89405,36.67771,80.518,36.67807Z"/><path class="cls-2" d="M85.21373,28.61605v.90732h.03919a1.85085,1.85085,0,0,1,1.64913-1.037q1.84209,0,1.84242,2.23678v7.37041H87.1737V31.23124q0-1.39431-.98962-1.39467a.84308.84308,0,0,0-.72261.37339,1.72566,1.72566,0,0,0-.267,1.02128v6.86228H83.60378V28.61605Z"/><path class="cls-2" d="M94.48822,33.68446H90.919a10.59153,10.59153,0,0,0,.18929,2.31777.8763.8763,0,0,0,.8973.78334.72885.72885,0,0,0,.73723-.45366A3.9933,3.9933,0,0,0,92.946,34.9057h1.44524q-.06774,3.31755-2.52186,3.31754-2.63808,0-2.63809-4.647,0-5.06877,2.73506-5.06841a2.26049,2.26049,0,0,1,1.78.87507q.74222.87509.74188,3.62071Zm-1.6-1.37246a7.05164,7.05164,0,0,0-.2039-2.016.75692.75692,0,0,0-.73723-.61062.80983.80983,0,0,0-.82955.64359A7.26624,7.26624,0,0,0,90.919,32.312Z"/><path class="cls-2" d="M97.98242,30.04225H96.96359v8.05127H95.3729V30.04225H94.35472v-1.394H95.3729V26.07611h1.59069V28.6483h1.01883Z"/><path class="cls-1" d="M109.32448,24.32524l-2.134,13.76828h-1.329l-1.48376-9.71541h-.04848L102.882,38.09352h-1.30776L99.508,24.32524h1.4459l1.37948,9.52119h.03919l1.4811-9.52119h1.13507l1.40007,9.47819h.04915l1.41-9.47819Z"/><path class="cls-2" d="M111.40134,28.48633a2.28982,2.28982,0,0,1,1.95,1.02629q.73623,1.02666.73723,3.9769a6.43833,6.43833,0,0,1-.77177,3.75043,2.32842,2.32842,0,0,1-1.89621.98329,2.24615,2.24615,0,0,1-2.08549-1.17823,7.47991,7.47991,0,0,1-.67879-3.62q0-2.994.77575-3.96615a2.37751,2.37751,0,0,1,1.93075-.97254Zm.99892,5.44611a15.79975,15.79975,0,0,0-.20324-3.19858q-.20422-.78908-.81494-.78907a.79875.79875,0,0,0-.79568.61635,7.1062,7.1062,0,0,0-.21319,2.08556,14.35277,14.35277,0,0,0,.23777,3.50173.8254.8254,0,0,0,.79036.63714.79518.79518,0,0,0,.79568-.64287A8.26637,8.26637,0,0,0,112.40026,33.93244Z"/><path class="cls-2" d="M118.10615,30.04225a2.37873,2.37873,0,0,0-1.56213.46442,2.74042,2.74042,0,0,0-.46558,1.92359v5.66326h-1.60995V28.6483h1.60995v1.394h.03918q.69838-1.53407,1.8816-1.53442l.10693.0215Z"/><path class="cls-2" d="M119.93063,38.09352h-1.59069V23.83861h1.59069Z"/><path class="cls-2" d="M124.04517,23.83861h1.58073V38.09352h-1.56147V36.82929h-.03852q-.57285,1.39431-1.62987,1.39395a1.67364,1.67364,0,0,1-1.13972-.46441,2.47624,2.47624,0,0,1-.72262-1.2972,13.15523,13.15523,0,0,1-.2039-2.77717,19.97429,19.97429,0,0,1,.17468-3.17206A2.914,2.914,0,0,1,121.174,29.021a1.63946,1.63946,0,0,1,1.2606-.53464q.99924,0,1.57143,1.26423h.03918Zm.01926,9.38072a10.67286,10.67286,0,0,0-.19858-2.47974q-.19926-.72994-.80033-.72959-.60174,0-.8249.76686a10.12982,10.12982,0,0,0-.22316,2.53994,11.453,11.453,0,0,0,.20855,2.62093q.2092.78369.80032.78334.58182,0,.81029-.81631A11.12853,11.12853,0,0,0,124.06443,33.21933Z"/><path class="cls-2" d="M11.81224,7.61732a.80367.80367,0,0,0,1.13091,0,.81991.81991,0,0,0,0-1.13091L10.06379,3.13968a.80368.80368,0,0,0-1.13091,0,.81987.81987,0,0,0,0,1.13091Z"/><path class="cls-2" d="M18.525,7.40738a.81187.81187,0,0,0,.79968-.79967q.08188-2.904.16378-5.808a.79968.79968,0,1,0-1.59935,0q-.08188,2.904-.16378,5.808A.8099.8099,0,0,0,18.525,7.40738Z"/><path class="cls-2" d="M24.94927,7.80685A.81444.81444,0,0,0,26.04338,7.52q1.1393-1.93812,2.27859-3.87622a.79981.79981,0,0,0-1.381-.80724l-2.2786,3.87622A.80935.80935,0,0,0,24.94927,7.80685Z"/><path class="cls-3" d="M18.51478,7.853C8.454,7.97522.37331,16.65684.5015,27.20588A28.35682,28.35682,0,0,0,2.73484,37.39635l.06995.1712a2.81771,2.81771,0,0,0,.43631-2.59528,25.69393,25.69393,0,0,1-1.42224-7.7824C1.69967,17.3816,9.19678,9.30964,18.5311,9.19621s17.02522,7.774,17.14441,17.58222a26.26954,26.26954,0,0,1-1.34057,8.14777,2.95312,2.95312,0,0,0,.445,2.62569l.00913.01261.03759-.09449a28.96494,28.96494,0,0,0,2.16619-10.70759C36.86468,16.2134,28.57542,7.73071,18.51478,7.853Z"/><path class="cls-4" d="M18.14652,25.10475c.03259,2.73-2.56238,1.77488-5.15677,1.80585a6.25731,6.25731,0,0,1-6.09218-4.51446c-.82316-2.61573-.63571-4.58479,1.95868-4.61576S18.11394,22.37473,18.14652,25.10475Z"/><path class="cls-5" d="M30.2953,15.4817a.80457.80457,0,0,0-1.20327-.6905c-1.77044,1.145-3.71673,1.98577-5.48058,3.13957a12.34168,12.34168,0,0,0-4.45443,4.984c-.17.35328-.32392.71645-.491,1.06812a23.64579,23.64579,0,0,0-3.90627-4.23681,16.6424,16.6424,0,0,0-4.05044-2.29786c-.90327-.37955-1.81568-.73672-2.71863-1.11713a.80308.80308,0,0,0-.903.3675,6.94591,6.94591,0,0,0,.026,7.24311,9.5485,9.5485,0,0,0,6.23185,3.99078,6.046,6.046,0,0,0,6.07671-2.06005c.774-1.06022,1.13849-2.362,1.84881-3.46679A10.07715,10.07715,0,0,1,23.54949,19.926a38.814,38.814,0,0,1,5.084-3.00045,25.99775,25.99775,0,0,1-.18755,5.17134,5.234,5.234,0,0,1-.4553,1.37217,3.76591,3.76591,0,0,1-.36042.57068c-.05973.0745-.1517.1711-.22939.24918-.03683.037-.182.15861-.20239.18224a2.96442,2.96442,0,0,1-.27447.17192c-.07353.03958-.149.07434-.22415.11081l-.034.01543c-.02805.01143-.0561.0231-.08444.03358a11.6061,11.6061,0,0,1-1.17319.36029c-1.8015.45655-3.66381.65557-5.44709,1.18735a5.86443,5.86443,0,0,0-2.19743,1.0704,2.72627,2.72627,0,0,0-.66786.952,9.17008,9.17008,0,0,0-.64678,1.85025,9.43972,9.43972,0,0,0,.62863,5.8943,4.49028,4.49028,0,0,1-1.31117.67228,5.2753,5.2753,0,0,0-1.73046.52873A4.67434,4.67434,0,0,0,12.99879,38.97a4.40906,4.40906,0,0,1-.63374.91524c.80376-.00141,1.60847-.03215,2.40588-.04984q2.77449-.06164,5.54906-.1232,2.47822-.055,4.95639-.11117,1.26645-.03023,2.53262-.06743c.18-.00544.36013-.01.54027-.015-.05534-.00678-.11055-.01029-.166-.01822a8.60325,8.60325,0,0,1-2.11726-.60923,18.6139,18.6139,0,0,1-3.8834-2.39527,18.40108,18.40108,0,0,0-1.82623-1.30246,1.79964,1.79964,0,0,0-1.60779-.23345,2.62337,2.62337,0,0,0-.36681.18634,7.73054,7.73054,0,0,1-.41615-4.38058,7.35222,7.35222,0,0,1,.53738-1.641c.051-.10747.10334-.21451.16049-.3189a.60929.60929,0,0,1,.059-.08519c.02982-.03165.0596-.06327.08971-.09469.02556-.02667.05544-.04879.08224-.074l.0023-.00239a4.16666,4.16666,0,0,1,.36746-.22576c.07962-.04259.16091-.08174.24262-.12008.031-.01458.06259-.02821.094-.04191l.04551-.01766a11.44618,11.44618,0,0,1,1.18391-.37552c1.78036-.46949,3.62347-.66625,5.39568-1.16808a5.52353,5.52353,0,0,0,2.06588-.96074,5.23716,5.23716,0,0,0,1.589-2.66686C30.54818,20.52807,30.06017,17.96881,30.2953,15.4817ZM17.54762,25.56989c-.02316.01477-.14666.10707-.16713.12057-.07425.049-.15046.095-.22753.13942-.17133.09875-.34849.18748-.527.27244a3.90576,3.90576,0,0,1-1.3617.359,8.12172,8.12172,0,0,1-5.99485-2.37145,5.35276,5.35276,0,0,1-1.12054-5.97546c1.2435.50615,2.399.93479,3.58422,1.55208a12.81739,12.81739,0,0,1,3.51578,2.71716A33.30848,33.30848,0,0,1,17.694,25.33054c.01521.02024.0329.03781.04925.05688C17.68039,25.45006,17.617,25.51222,17.54762,25.56989Z"/></g></g></svg>